<?xml version="1.0" encoding="UTF-8" standalone="no"?>
<svg
   xmlns:dc="http://purl.org/dc/elements/1.1/"
   xmlns:cc="http://creativecommons.org/ns#"
   xmlns:rdf="http://www.w3.org/1999/02/22-rdf-syntax-ns#"
   xmlns:svg="http://www.w3.org/2000/svg"
   xmlns="http://www.w3.org/2000/svg"
   xmlns:sodipodi="http://sodipodi.sourceforge.net/DTD/sodipodi-0.dtd"
   xmlns:inkscape="http://www.inkscape.org/namespaces/inkscape"
   height="511pt"
   viewBox="1 -40 511.999 511"
   width="511pt"
   version="1.1"
   id="svg28"
   sodipodi:docname="food.svg"
   inkscape:version="0.92.4 (5da689c313, 2019-01-14)">
  <metadata
     id="metadata34">
    <rdf:RDF>
      <cc:Work
         rdf:about="">
        <dc:format>image/svg+xml</dc:format>
        <dc:type
           rdf:resource="http://purl.org/dc/dcmitype/StillImage" />
      </cc:Work>
    </rdf:RDF>
  </metadata>
  <defs
     id="defs32" />
  <sodipodi:namedview
     pagecolor="#ffffff"
     bordercolor="#666666"
     borderopacity="1"
     objecttolerance="10"
     gridtolerance="10"
     guidetolerance="10"
     inkscape:pageopacity="0"
     inkscape:pageshadow="2"
     inkscape:window-width="1680"
     inkscape:window-height="987"
     id="namedview30"
     showgrid="false"
     inkscape:zoom="0.97970959"
     inkscape:cx="310.70034"
     inkscape:cy="277.29976"
     inkscape:window-x="-8"
     inkscape:window-y="-8"
     inkscape:window-maximized="1"
     inkscape:current-layer="svg28" />
  <path
     d="m0 239.863281.105469 7.800781c.21875 15.546876 7.914062 28.980469 15.359375 41.886719 4.363281 7.570313 8.488281 14.765625 10.785156 21.839844 2.441406 7.519531 3.378906 16.027344 4.367188 25.011719 1.636718 14.816406 3.328124 30.144531 12.238281 42.386718 9 12.371094 23.101562 18.714844 36.742187 24.839844 7.289063 3.277344 14.171875 6.371094 20.054688 10.242188l5.894531 3.699218 133.496094-177.707031zm208.945312 15.027344-92.042968 122.582031c-17.664063-14.539062-32.386719-32.769531-42.882813-53.027344-11.253906-21.71875-17.488281-44.511718-18.617187-69.554687zm-107.105468 142.792969c-5.214844-2.871094-10.714844-5.34375-16.085938-7.753906-12.390625-5.570313-24.097656-10.828126-30.75-19.96875-6.5625-9.019532-7.964844-21.726563-9.449218-35.183594-1.03125-9.339844-2.097657-19-5.011719-27.980469-2.785157-8.574219-7.5-16.933594-12.0625-24.84375-5.289063-9.171875-10.347657-18.050781-12.394531-27.066406h24.285156c1.175781 27.046875 8.121094 53.046875 20.304687 76.566406 11.527344 22.242187 27.738281 42.230469 47.191407 58.121094zm0 0"
     id="path2" />
  <path
     d="m 496.63672,173.36328 c -4.36719,-7.57031 -8.48828,-14.71875 -10.78516,-21.79297 -2.4414,-7.51953 -3.3789,-16.0039 -4.36718,-24.98828 -1.63672,-14.8164 -3.32813,-30.132811 -12.23829,-42.378905 C 460.24609,71.835938 446.14063,65.5 432.50391,59.371094 424.3125,55.691406 416.57813,52.214844 410.28906,47.640625 404.12109,43.152344 398.50781,36.929688 392.5625,30.339844 382.48828,19.171875 372.07031,7.625 357.30859,2.832031 c -14.13671,-4.589843 -29.09375,-1.492187 -43.55468,1.5 -9.00391,1.863281 -17.50391,3.625 -25.64844,3.625 -8.14063,0 -16.64063,-1.761719 -25.64453,-3.625 -14.46485,-2.992187 -29.41797,-6.085937 -43.55469,-1.5 -14.76172,4.792969 -25.17969,16.339844 -35.25391,27.507813 -5.94531,6.589844 -11.5625,12.8125 -17.73047,17.300781 -6.28515,4.574219 -14.02343,8.050781 -22.21484,11.730469 C 130.07031,65.5 115.96875,71.835938 106.96875,84.203125 98.054688,96.449219 96.367188,111.76563 94.730469,126.57813 c -0.988281,8.98828 -1.925781,17.47265 -4.367188,24.99218 -2.304687,7.08985 -6.695312,14.1836 -11.082031,21.6875 -7.53125,12.88672 -15.566406,26.20703 -15.566406,42.00391 v 7.57031 H 273.12109 l -116.01562,155.32422 6.66015,4.37109 c 0.75,0.49219 1.47657,0.98438 2.15625,1.48047 6.16797,4.48828 11.78516,10.71094 17.73047,17.30078 10.07422,11.16407 20.49219,22.71094 35.25391,27.50391 5.18359,1.68359 10.47656,2.33203 15.81641,2.32813 9.21875,0 18.57812,-1.9375 27.73828,-3.83204 9,-1.86328 17.5039,-3.625 25.64453,-3.625 8.14453,0 16.64453,1.76172 25.64453,3.625 14.46875,2.99219 29.42188,6.08594 43.55859,1.5 14.76172,-4.79297 25.17969,-16.33984 35.25391,-27.50781 5.94531,-6.58594 11.55859,-12.8125 17.72656,-17.30078 6.28907,-4.57422 14.02344,-8.05078 22.21485,-11.73047 13.63672,-6.1289 27.73828,-12.46484 36.74218,-24.83203 8.91016,-12.24609 10.60157,-27.5625 12.23438,-42.375 0.99219,-8.98828 1.92969,-17.47266 4.37109,-24.99219 2.29297,-7.07422 6.41797,-14.22265 10.78516,-21.79297 C 504.1875,245.17969 512,231.63672 512,215.82031 512,200 504.19141,186.46094 496.63672,173.36328 Z m -13.01563,77.41016 c -4.5625,7.90625 -9.27734,16.08593 -12.0625,24.65625 -2.91406,8.98047 -3.98437,18.64062 -5.01171,27.98437 -1.48438,13.45703 -2.88672,26.16406 -9.44922,35.1836 -6.65235,9.13671 -18.35938,14.39843 -30.75,19.96484 -8.53125,3.83203 -17.34766,7.79687 -24.89844,13.28906 -7.43359,5.41016 -13.84375,12.51563 -20.04297,19.38672 -9.15625,10.14844 -17.80078,19.73047 -28.73828,23.28125 -10.34766,3.36328 -22.74609,0.79297 -35.8711,-1.92578 -9.34765,-1.93359 -19.01171,-3.93359 -28.6914,-3.93359 -9.68359,0 -19.34766,2 -28.69141,3.93359 -13.125,2.71875 -25.52344,5.28516 -35.87109,1.92578 -10.9375,-3.55078 -19.58594,-13.13281 -28.73828,-23.28125 -5.16016,-5.71875 -10.46875,-11.60156 -16.39063,-16.53516 l 5.53125,-7.40625 c 30.71094,21.17579 66.60156,32.34766 104.16016,32.34766 101.35937,0 183.82031,-82.46094 183.82031,-183.82422 0,-35.84765 -10.32422,-70.58984 -29.85937,-100.46875 C 423.03125,86.246094 381.94843,53.698911 346.59375,41.511719 l -4.77734,14.25 c 31.2503,10.236569 70.1875,41.078125 87.67187,67.812501 17.93359,27.42969 27.41016,59.32812 27.41016,92.25 0,93.07422 -75.71875,168.79297 -168.79297,168.79297 -34.29688,0 -67.07422,-10.10938 -95.16406,-29.33985 L 303.09375,207.80859 H 119.50781 c 4.22657,-89.15625 78.23047,-160.753902 168.59766,-160.753902 18.38281,0 36.45703,2.921874 53.71094,8.707031 l 4.77734,-14.25 c -18.79687,-6.308594 -38.47656,-9.480469 -58.48828,-9.480469 -98.65235,0 -179.39453,77.60547 -183.63281,175.77734 H 80.082031 c 1.957031,-9.01562 7.074219,-17.78906 12.421875,-26.9375 4.59375,-7.86718 9.347654,-16.01171 12.152344,-24.64453 2.91406,-8.98047 3.98047,-18.64843 5.01172,-27.99218 1.48437,-13.45313 2.88672,-26.16797 9.44922,-35.183599 6.65234,-9.140625 18.35937,-14.402343 30.75,-19.96875 8.53125,-3.832031 17.34765,-7.796875 24.89843,-13.289062 7.4336,-5.414063 13.84375,-12.515625 20.04297,-19.386719 9.15235,-10.148438 17.80078,-19.730469 28.73828,-23.28125 10.34766,-3.359375 22.7461,-0.792969 35.8711,1.921875 9.34375,1.933594 19.00781,3.9375 28.6914,3.9375 9.67969,0 19.34376,-2.003906 28.69141,-3.9375 13.125,-2.714844 25.52344,-5.285156 35.86719,-1.921875 10.94141,3.550781 19.58594,13.132812 28.74219,23.277344 6.19531,6.871094 12.60547,13.976562 20.04297,19.386718 7.54687,5.492188 16.36718,9.457032 24.89453,13.289063 12.39453,5.570313 24.09765,10.828125 30.75,19.96875 6.5625,9.015625 7.96484,21.726565 9.44922,35.179685 1.03125,9.34375 2.09765,19.00391 5.01562,27.98438 2.78125,8.57422 7.5,16.75 12.05859,24.66015 6.86719,11.90625 13.35547,23.15235 13.35547,34.94922 -0.004,11.79688 -6.48828,23.04297 -13.35547,34.95313 z"
     id="path4"
     inkscape:connector-curvature="0"
     sodipodi:nodetypes="cccccccccscccccccccscccccccccscccccccccsccccccccccscccccssccccsscccsccscccccccccccsccccccccccc" />
  <path
     d="m288.109375 288.449219c-3.804687 0-10.882813 1.851562-15.535156 14.261719-2.582031 6.878906-4 15.867187-4 25.304687 0 9.441406 1.417969 18.429687 4 25.308594 4.652343 12.410156 11.730469 14.261719 15.535156 14.261719 3.800781 0 10.878906-1.851563 15.535156-14.261719 2.578125-6.878907 3.996094-15.867188 3.996094-25.308594 0-9.4375-1.417969-18.425781-3.996094-25.304687-4.65625-12.410157-11.734375-14.261719-15.535156-14.261719zm0 62.855469c-1.988281-3.382813-4.507813-11.527344-4.507813-23.289063 0-11.757813 2.519532-19.902344 4.507813-23.289063 1.984375 3.386719 4.507813 11.53125 4.507813 23.289063 0 11.761719-2.523438 19.90625-4.507813 23.289063zm0 0"
     id="path6" />
  <path
     d="m288.109375 64.054688c-3.804687 0-10.882813 1.851562-15.535156 14.265624-2.582031 6.875-4 15.863282-4 25.304688s1.417969 18.425781 4 25.304688c4.652343 12.410156 11.730469 14.265624 15.535156 14.265624 3.800781 0 10.878906-1.855468 15.535156-14.265624 2.578125-6.878907 3.996094-15.863282 3.996094-25.304688s-1.417969-18.429688-3.996094-25.304688c-4.65625-12.414062-11.734375-14.265624-15.535156-14.265624zm0 62.859374c-1.988281-3.386718-4.507813-11.53125-4.507813-23.289062 0-11.761719 2.519532-19.90625 4.507813-23.289062 1.984375 3.382812 4.507813 11.527343 4.507813 23.289062 0 11.757812-2.523438 19.902344-4.507813 23.289062zm0 0"
     id="path8" />
  <path
     d="m381.257812 281.34375c-6.679687-6.675781-14.039062-12.027344-20.722656-15.066406-12.070312-5.484375-18.382812-1.792969-21.074218.898437-2.6875 2.691407-6.382813 9.003907-.898438 21.070313 3.039062 6.6875 8.390625 14.046875 15.066406 20.722656 6.675782 6.675781 14.035156 12.023438 20.722656 15.066406 4.5625 2.070313 8.300782 2.835938 11.335938 2.835938 4.984375 0 8.0625-2.0625 9.734375-3.734375 2.691406-2.691407 6.382813-9.003907.898437-21.074219-3.039062-6.683594-8.390624-14.042969-15.0625-20.71875zm-17.003906 17c-8.316406-8.316406-12.292968-15.859375-13.28125-19.65625 3.800782.988281 11.339844 4.964844 19.65625 13.28125s12.292969 15.855469 13.28125 19.65625c-3.796875-.988281-11.339844-4.964844-19.65625-13.28125zm0 0"
     id="path10" />
  <path
     d="m222.585938 122.671875c-6.675782-6.675781-14.035157-12.023437-20.722657-15.0625-12.066406-5.488281-18.382812-1.792969-21.070312.894531-2.691407 2.691406-6.382813 9.007813-.898438 21.074219 3.039063 6.6875 8.390625 14.046875 15.0625 20.722656 6.679688 6.671875 14.039063 12.023438 20.722657 15.0625 4.5625 2.074219 8.304687 2.835938 11.335937 2.835938 4.988281 0 8.0625-2.0625 9.738281-3.734375 2.6875-2.6875 6.382813-9.003906.894532-21.070313-3.039063-6.6875-8.386719-14.046875-15.0625-20.722656zm-17 17c-8.316407-8.316406-12.292969-15.855469-13.28125-19.652344 3.796874.984375 11.339843 4.964844 19.65625 13.28125 8.316406 8.316407 12.292968 15.855469 13.28125 19.652344-3.800782-.984375-11.339844-4.964844-19.65625-13.28125zm0 0"
     id="path12" />
  <path
     d="m360.734375 215.820312c0 3.804688 1.855469 10.878907 14.265625 15.535157 6.875 2.578125 15.863281 4 25.304688 4 9.441406 0 18.425781-1.421875 25.304687-4 12.410156-4.65625 14.265625-11.730469 14.265625-15.535157 0-3.804687-1.855469-10.878906-14.265625-15.535156-6.875-2.578125-15.863281-4-25.304687-4-9.441407 0-18.429688 1.421875-25.304688 4-12.414062 4.65625-14.265625 11.730469-14.265625 15.535156zm39.570313-4.507812c11.761718 0 19.90625 2.519531 23.289062 4.507812-3.382812 1.988282-11.527344 4.507813-23.289062 4.507813-11.761719 0-19.90625-2.519531-23.289063-4.507813 3.382813-1.988281 11.527344-4.507812 23.289063-4.507812zm0 0"
     id="path14" />
  <path
     d="m102.941406 318.945312c.777344 0 1.589844-.023437 2.433594-.074218 7.332031-.441406 16.121094-2.800782 24.746094-6.640625 8.621094-3.839844 16.253906-8.792969 21.488281-13.945313 9.445313-9.300781 8.261719-16.519531 6.714844-19.992187-1.546875-3.476563-6.117188-9.191407-19.351563-8.390625-7.328125.4375-16.117187 2.796875-24.742187 6.636718-8.625 3.839844-16.257813 8.792969-21.492188 13.949219-9.445312 9.296875-8.257812 16.515625-6.710937 19.992188 1.445312 3.25 5.542968 8.464843 16.914062 8.464843zm17.398438-28.679687c10.746094-4.78125 19.207031-5.800781 23.109375-5.351563-2.28125 3.191407-8.699219 8.804688-19.441407 13.589844-10.746093 4.78125-19.210937 5.785156-23.109374 5.351563 2.28125-3.1875 8.695312-8.804688 19.441406-13.589844zm0 0"
     id="path16" />
  <path
     d="m338.5625 143.394531c-5.484375 12.066407-1.789062 18.382813.898438 21.070313 1.675781 1.671875 4.75 3.734375 9.738281 3.734375 3.03125 0 6.773437-.761719 11.335937-2.835938 6.683594-3.039062 14.042969-8.390625 20.722656-15.066406 6.671876-6.675781 12.023438-14.035156 15.0625-20.71875 5.484376-12.070313 1.792969-18.382813-.898437-21.074219-2.691406-2.6875-9-6.382812-21.070313-.898437-6.6875 3.039062-14.046874 8.390625-20.722656 15.066406-6.675781 6.675781-12.027344 14.035156-15.066406 20.722656zm45.347656-23.375c-.988281 3.796875-4.964844 11.335938-13.28125 19.652344s-15.855468 12.292969-19.65625 13.28125c.988282-3.796875 4.964844-11.339844 13.28125-19.65625s15.859375-12.292969 19.65625-13.277344zm0 0"
     id="path18" />
</svg>
